<svg width="12" height="12" viewBox="0 0 12 12" fill="none" xmlns="http://www.w3.org/2000/svg">
<path d="M6.00008 11.8332C2.77833 11.8332 0.166748 9.22159 0.166748 5.99984C0.166748 2.77809 2.77833 0.166504 6.00008 0.166504C9.22183 0.166504 11.8334 2.77809 11.8334 5.99984C11.8334 9.22159 9.22183 11.8332 6.00008 11.8332ZM6.00008 10.6665C7.23776 10.6665 8.42474 10.1748 9.29991 9.29967C10.1751 8.4245 10.6667 7.23751 10.6667 5.99984C10.6667 4.76216 10.1751 3.57518 9.29991 2.70001C8.42474 1.82484 7.23776 1.33317 6.00008 1.33317C4.7624 1.33317 3.57542 1.82484 2.70025 2.70001C1.82508 3.57518 1.33341 4.76216 1.33341 5.99984C1.33341 7.23751 1.82508 8.4245 2.70025 9.29967C3.57542 10.1748 4.7624 10.6665 6.00008 10.6665ZM6.00008 5.175L7.64975 3.52475L8.47517 4.35017L6.82491 5.99984L8.47517 7.6495L7.64975 8.47492L6.00008 6.82467L4.35041 8.47492L3.525 7.6495L5.17525 5.99984L3.525 4.35017L4.35041 3.52475L6.00008 5.175Z" fill="#4A4A6A"/>
</svg>
