<svg width="12" height="14" viewBox="0 0 12 14" fill="none" xmlns="http://www.w3.org/2000/svg">
<path d="M5.9999 1.75016C5.53577 1.75016 5.09065 1.93454 4.76246 2.26273C4.43427 2.59091 4.2499 3.03603 4.2499 3.50016V5.8335C4.2499 6.29762 4.43427 6.74274 4.76246 7.07093C5.09065 7.39912 5.53577 7.5835 5.9999 7.5835C6.46403 7.5835 6.90915 7.39912 7.23734 7.07093C7.56553 6.74274 7.7499 6.29762 7.7499 5.8335V3.50016C7.7499 3.03603 7.56553 2.59091 7.23734 2.26273C6.90915 1.93454 6.46403 1.75016 5.9999 1.75016ZM5.9999 0.583496C6.38292 0.583496 6.76219 0.658938 7.11606 0.805514C7.46993 0.95209 7.79146 1.16693 8.06229 1.43777C8.33313 1.70861 8.54797 2.03014 8.69455 2.384C8.84112 2.73787 8.91657 3.11714 8.91657 3.50016V5.8335C8.91657 6.60704 8.60928 7.34891 8.06229 7.89589C7.51531 8.44287 6.77345 8.75016 5.9999 8.75016C5.22635 8.75016 4.48449 8.44287 3.9375 7.89589C3.39052 7.34891 3.08323 6.60704 3.08323 5.8335V3.50016C3.08323 2.72661 3.39052 1.98475 3.9375 1.43777C4.48449 0.890787 5.22635 0.583496 5.9999 0.583496ZM0.781982 6.41683H1.9574C2.09874 7.38795 2.58499 8.27572 3.3272 8.91774C4.06941 9.55974 5.01796 9.91307 5.99932 9.91307C6.98067 9.91307 7.92922 9.55974 8.67143 8.91774C9.41364 8.27572 9.8999 7.38795 10.0412 6.41683H11.2172C11.0846 7.60025 10.5538 8.70347 9.71177 9.54556C8.86979 10.3877 7.76663 10.9186 6.58323 11.0514V13.4168H5.41657V11.0514C4.23306 10.9188 3.12977 10.3878 2.28767 9.54573C1.44556 8.70362 0.91464 7.60033 0.781982 6.41683Z" fill="#C0C0CF"/>
</svg>
