<svg width="14" height="10" viewBox="0 0 14 10" fill="none" xmlns="http://www.w3.org/2000/svg">
<path d="M5.83325 2.21184L3.85167 3.83351H1.74992V6.16684H3.85167L5.83325 7.78851V2.21184ZM3.43517 7.33351H1.16659C1.01188 7.33351 0.863503 7.27205 0.754106 7.16265C0.64471 7.05326 0.583252 6.90489 0.583252 6.75018V3.25018C0.583252 3.09547 0.64471 2.94709 0.754106 2.8377C0.863503 2.7283 1.01188 2.66684 1.16659 2.66684H3.43517L6.52333 0.139842C6.56606 0.104811 6.61787 0.0826382 6.67271 0.0759046C6.72755 0.069171 6.78318 0.0781537 6.83311 0.101807C6.88305 0.12546 6.92523 0.162811 6.95477 0.209511C6.9843 0.256211 6.99996 0.310338 6.99992 0.365592V9.63476C6.99996 9.69001 6.9843 9.74414 6.95477 9.79084C6.92523 9.83754 6.88305 9.87489 6.83311 9.89854C6.78318 9.9222 6.72755 9.93118 6.67271 9.92445C6.61787 9.91771 6.56606 9.89554 6.52333 9.86051L3.43575 7.33351H3.43517ZM11.3201 9.74501L10.4941 8.91901C11.0471 8.42698 11.4895 7.82332 11.7921 7.14783C12.0948 6.47234 12.2508 5.74037 12.2499 5.00018C12.2506 4.22206 12.078 3.45356 11.7447 2.75048C11.4113 2.0474 10.9255 1.4274 10.3226 0.935509L11.1509 0.107175C11.8617 0.708911 12.4326 1.45846 12.824 2.30354C13.2153 3.14862 13.4175 4.06889 13.4166 5.00018C13.4166 6.88026 12.6081 8.57134 11.3201 9.74501ZM9.25333 7.67826L8.42384 6.84876C8.70703 6.631 8.93634 6.35102 9.09403 6.03048C9.25172 5.70993 9.33357 5.35741 9.33325 5.00018C9.33325 4.16601 8.89575 3.43393 8.23658 3.02151L9.076 2.18209C9.51785 2.50712 9.87699 2.93159 10.1244 3.42116C10.3717 3.91073 10.5004 4.45166 10.4999 5.00018C10.4999 6.07468 10.0158 7.03601 9.25333 7.67826Z" fill="#C0C0CF"/>
</svg>
